<svg xmlns="http://www.w3.org/2000/svg" xmlns:xlink="http://www.w3.org/1999/xlink" viewBox="0 0 80 100" version="1.1" x="0px" y="0px"><title>flower_026-rose-blossom-nature-spring</title><desc>Created with Sketch.</desc><g stroke="none" stroke-width="1" fill="none" fill-rule="evenodd"><g transform="translate(-680.000000, -319.000000)" fill="#000000"><g transform="translate(690.000000, 329.000000)"><path d="M4.23302739,19.2051319 C-1.61021957,27.2476714 0.172659279,38.5043254 8.21519875,44.3475723 C8.5721435,44.6069079 8.93695478,44.8523141 9.30908221,45.0835725 C9.77816576,45.3750842 10.39475,45.2311337 10.6862617,44.7620502 C10.9777734,44.2929667 10.833823,43.6763824 10.3647395,43.3848707 C10.0335324,43.1790422 9.70871874,42.9605422 9.39076925,42.7295383 C2.24184528,37.5355411 0.657064084,27.5296264 5.85106138,20.3807024 C9.23142001,15.7280379 14.7730522,13.3043601 20.3926543,13.8624294 C20.9422357,13.917007 21.4320034,13.5157272 21.486581,12.9661458 C21.5411586,12.4165644 21.1398788,11.9267967 20.5902973,11.8722191 C14.2707804,11.2446429 8.03526994,13.971794 4.23302739,19.2051319 Z"/><path d="M12.4620209,52.121106 C18.3052679,60.1636455 29.5619219,61.9465243 37.6044614,56.1032774 C38.0313606,55.793117 38.4427686,55.4661124 38.8380384,55.123052 C39.2551363,54.7610468 39.2997977,54.1294589 38.9377925,53.712361 C38.5757872,53.2952631 37.9441994,53.2506017 37.5271015,53.6126069 C37.1753678,53.9178817 36.8091231,54.2089885 36.4288909,54.4852434 C29.2799669,59.6792407 19.2740522,58.0944595 14.0800549,50.9455355 C11.428746,47.2963219 10.4722992,42.7901303 11.3255996,38.4502897 C11.4321499,37.9083806 11.0792218,37.3827004 10.5373127,37.2761501 C9.99540358,37.1695998 9.46972338,37.5225279 9.3631731,38.064437 C8.40366253,42.9444571 9.48036178,48.0172043 12.4620209,52.121106 Z"/><path d="M46.3098715,54.4664635 C55.7644436,51.3944868 60.9385596,41.2397125 57.8665829,31.7851403 C57.6986942,31.2684321 57.5087499,30.7618286 57.2973515,30.2662678 C57.0806491,29.7582732 56.4931661,29.5221342 55.9851715,29.7388366 C55.4771769,29.955539 55.241038,30.543022 55.4577404,31.0510166 C55.6458481,31.4919794 55.8149361,31.9429569 55.9644698,32.4031743 C58.6951158,40.8072385 54.0959016,49.8337045 45.6918375,52.5643505 C38.1896798,55.0019492 30.0627945,51.600456 26.5094449,44.6520264 C26.2579857,44.1603082 25.6555214,43.9655399 25.1638033,44.2169991 C24.6720852,44.4684582 24.4773168,45.0709225 24.728776,45.5626406 C28.7278387,53.3826441 37.8695491,57.2088905 46.3098715,54.4664635 Z"/><path d="M59,23 C59,13.0588745 50.9411255,5 41,5 C40.4506009,5 39.9040614,5.02464284 39.3614965,5.07363611 C38.8114497,5.12330498 38.4058133,5.60947057 38.4554822,6.15951734 C38.505151,6.70956411 38.9913166,7.11520053 39.5413634,7.06553166 C40.0241452,7.02193677 40.5106684,7 41,7 C49.836556,7 57,14.163444 57,23 C57,28.2615564 54.44306,33.0918656 50.2266238,36.0734116 C49.775689,36.3922788 49.668627,37.0163265 49.9874941,37.4672613 C50.3063612,37.9181962 50.930409,38.0252582 51.3813438,37.706391 C56.1223954,34.3538765 59,28.9178006 59,23 Z"/><path d="M12.2158701,13.382044 C14.946516,4.9779798 23.9729821,0.378765641 32.3770462,3.10941162 C38.675767,5.15599005 42.9990474,10.8308531 43.4062914,17.3302676 C43.4408291,17.8814713 43.9156663,18.300312 44.4668701,18.2657744 C45.0180738,18.2312367 45.4369145,17.7563995 45.4023768,17.2051957 C44.9442381,9.89352585 40.0807517,3.50957281 32.9950802,1.20729858 C23.540508,-1.86467814 13.3857338,3.30943779 10.313757,12.76401 C10.1205756,13.3585613 9.95889219,13.9594235 9.82879812,14.5648907 C9.71277905,15.1048518 10.056452,15.6366289 10.5964131,15.7526479 C11.1363743,15.868667 11.6681513,15.524994 11.7841703,14.9850329 C11.899911,14.4463677 12.0438209,13.9115569 12.2158701,13.382044 Z"/><path d="M25,18 C16.163444,18 9,25.163444 9,34 C9,42.836556 16.163444,50 25,50 C27.0327147,50 29.0144522,49.6203014 30.8668247,48.8898883 C31.3806097,48.6872966 31.6328818,48.1065585 31.4302901,47.5927735 C31.2276984,47.0789885 30.6469603,46.8267165 30.1331753,47.0293082 C28.5134862,47.6679713 26.7805494,48 25,48 C17.2680135,48 11,41.7319865 11,34 C11,26.2680135 17.2680135,20 25,20 C26.7588133,20 28.4712348,20.3239648 30.0741035,20.9475548 C30.5888081,21.1477987 31.1683884,20.8928779 31.3686323,20.3781733 C31.5688761,19.8634687 31.3139554,19.2838884 30.7992507,19.0836445 C28.9661142,18.3704696 27.0078759,18 25,18 Z"/><path d="M20,34 C20,42.836556 27.163444,50 36,50 C44.836556,50 52,42.836556 52,34 C52,29.5129998 50.1421643,25.3209788 46.9301191,22.3152168 C46.5268605,21.9378562 45.8940437,21.9588507 45.5166832,22.3621093 C45.1393226,22.7653678 45.1603171,23.3981846 45.5635756,23.7755452 C48.3756011,26.4069774 50,30.0722715 50,34 C50,41.7319865 43.7319865,48 36,48 C28.2680135,48 22,41.7319865 22,34 C22,33.3059907 22.0504199,32.6186443 22.1501362,31.9415087 C22.2305989,31.3951167 21.8528885,30.8869506 21.3064966,30.8064879 C20.7601046,30.7260252 20.2519385,31.1037355 20.1714758,31.6501275 C20.0575636,32.4236623 20,33.2083944 20,34 Z"/><path d="M31,10 C38.7319865,10 45,16.2680135 45,24 C45,28.5218632 42.842404,32.6817094 39.261917,35.3035125 L37.1693546,36.6072869 C36.7009303,36.8998568 36.5583721,37.5167644 36.8509419,37.9851887 C37.1435117,38.4536131 37.7604194,38.5961713 38.2288437,38.3036014 L40.3824554,36.9584923 C44.5330581,33.9225919 47,29.1663265 47,24 C47,15.163444 39.836556,8 31,8 C23.001321,8 16.26184,13.90393 15.1570569,21.7502374 C15.0800531,22.2971276 15.4609713,22.8028935 16.0078615,22.8798973 C16.5547517,22.956901 17.0605177,22.5759828 17.1375214,22.0290926 C18.1037865,15.1665575 24.0015386,10 31,10 Z"/><path d="M42,30 C42,23.9248678 37.0751322,19 31,19 C24.9248678,19 20,23.9248678 20,30 C20,36.0751322 24.9248678,41 31,41 C37.0751322,41 42,36.0751322 42,30 Z M22,30 C22,25.0294373 26.0294373,21 31,21 C35.9705627,21 40,25.0294373 40,30 C40,34.9705627 35.9705627,39 31,39 C26.0294373,39 22,34.9705627 22,30 Z"/><path d="M37,30 C37,26.6862915 34.3137085,24 31,24 C27.6862915,24 25,26.6862915 25,30 C25,33.3137085 27.6862915,36 31,36 C34.3137085,36 37,33.3137085 37,30 Z M27,30 C27,27.790861 28.790861,26 31,26 C33.209139,26 35,27.790861 35,30 C35,32.209139 33.209139,34 31,34 C28.790861,34 27,32.209139 27,30 Z"/><path d="M23.6639468,32.3992861 C23.1701294,37.2775259 25.842119,41 31,41 L31,39 C27.142244,39 25.2700198,36.3917166 25.6537776,32.6007139 C26.0207062,28.975962 28.3576848,26 31,26 L31,24 C27.1573931,24 24.1230468,27.8640058 23.6639468,32.3992861 Z"/></g></g></g><text x="0" y="95" fill="#000000" font-size="5px" font-weight="bold" font-family="'Helvetica Neue', Helvetica, Arial-Unicode, Arial, Sans-serif">Created by Xinh Studio</text><text x="0" y="100" fill="#000000" font-size="5px" font-weight="bold" font-family="'Helvetica Neue', Helvetica, Arial-Unicode, Arial, Sans-serif">from the Noun Project</text></svg>