<svg id="Layer_1" data-name="Layer 1" xmlns="http://www.w3.org/2000/svg" viewBox="0 0 58.2 59.25"><defs><style>.cls-1{fill:#7f5962;}.cls-2{fill:#f5abb9;}</style></defs><path class="cls-1" d="M57.08,31.47A18,18,0,0,1,37.92,54.91l.13-.11a1,1,0,0,0,.06-1.41,1,1,0,0,0-.54-.3l0-.25A16,16,0,0,0,55.29,32.48a14.79,14.79,0,0,0,1.29-2.34C56.77,30.59,56.93,31,57.08,31.47Z" transform="translate(-0.01 0.01)"/><path class="cls-1" d="M58.21,22.68a17.88,17.88,0,0,1-1.63,7.46c0-.06,0-.12-.07-.19a1,1,0,0,0-1.33-.48,1,1,0,0,0-.49.5l-.19-.09A16,16,0,0,0,40.66,6.69a17.16,17.16,0,0,0-1.85-2,13,13,0,0,1,1.4-.05A18,18,0,0,1,58.21,22.68Z" transform="translate(-0.01 0.01)"/><path class="cls-1" d="M56.51,30c0,.07.05.13.07.19a14.79,14.79,0,0,1-1.29,2.34l-.12-.4c-.15-.46-.31-.91-.5-1.35a1,1,0,0,1,0-.76,1,1,0,0,1,.49-.5A1,1,0,0,1,56.51,30Z" transform="translate(-0.01 0.01)"/><path class="cls-2" d="M55.29,32.48a16,16,0,0,1-26.06,16.4l.48-.17A16,16,0,0,0,50.82,37.22,17.5,17.5,0,0,0,55.29,32.48Z" transform="translate(-0.01 0.01)"/><path class="cls-1" d="M55.17,32.08l.12.4a17.5,17.5,0,0,1-4.47,4.74,16.42,16.42,0,0,0,.38-2.92,15.68,15.68,0,0,0,3.3-4.42l.19.09a1,1,0,0,0,0,.76C54.86,31.17,55,31.62,55.17,32.08Z" transform="translate(-0.01 0.01)"/><path class="cls-2" d="M56.21,22.68a16,16,0,0,1-1.71,7.2,15.68,15.68,0,0,1-3.3,4.42c0-.2,0-.4,0-.61A16,16,0,0,0,46.14,22l0,0a16.19,16.19,0,0,0-1.51-5.24,17.94,17.94,0,0,0-4-10A16,16,0,0,1,56.21,22.68Z" transform="translate(-0.01 0.01)"/><path class="cls-1" d="M51.21,33.69c0,.21,0,.41,0,.61a15.23,15.23,0,0,1-1.76,1.45,1,1,0,0,0-.4.59l-.08,0A14,14,0,0,0,46.15,25a15.52,15.52,0,0,0,0-3l0,0A16,16,0,0,1,51.21,33.69Z" transform="translate(-0.01 0.01)"/><path class="cls-1" d="M51.2,34.3a16.42,16.42,0,0,1-.38,2.92l-.23.17a1,1,0,0,1-1.39-.24h0a1,1,0,0,1,.25-1.39A15.23,15.23,0,0,0,51.2,34.3Z" transform="translate(-0.01 0.01)"/><path class="cls-1" d="M50.59,37.39l.23-.17A16,16,0,0,1,29.71,48.71l.37-.14a1,1,0,0,0,.57-1.31,1,1,0,0,0-.37-.48A14,14,0,0,0,49,36.32l.08,0a1,1,0,0,0,.15.8h0A1,1,0,0,0,50.59,37.39Z" transform="translate(-0.01 0.01)"/><path class="cls-2" d="M46.15,25A14,14,0,0,1,30.28,46.78h0a1,1,0,0,0-.41-.16h0a14,14,0,0,1-8.38-10.25,11,11,0,0,0,7.87,4.27,8.44,8.44,0,0,0,.87,0A11,11,0,0,0,37.39,38l0,0,2.15-1.3A15.92,15.92,0,0,0,46.15,25Z" transform="translate(-0.01 0.01)"/><path class="cls-1" d="M46.12,22a15.52,15.52,0,0,1,0,3,13.62,13.62,0,0,0-1.42-1.53h0A1,1,0,0,1,46.12,22Z" transform="translate(-0.01 0.01)"/><path class="cls-1" d="M46.12,22a1,1,0,0,0-1.4,1.43h0A13.62,13.62,0,0,1,46.15,25a15.92,15.92,0,0,1-6.56,11.73L37.44,38l0,0a11,11,0,0,0,3.35-5.13,14,14,0,0,0,2-15.51h0a1,1,0,0,0,1.9-.49c0-.05,0-.1,0-.15A16.19,16.19,0,0,1,46.12,22Z" transform="translate(-0.01 0.01)"/><path class="cls-1" d="M44.62,16.89a1,1,0,0,1-1.9.49.93.93,0,0,1-.1-.37,15.66,15.66,0,0,0-.9-4.38,14.8,14.8,0,0,1,1.44,1.71,16.47,16.47,0,0,1,1.45,2.4C44.61,16.79,44.62,16.84,44.62,16.89Z" transform="translate(-0.01 0.01)"/><path class="cls-1" d="M44.61,16.74a16.47,16.47,0,0,0-1.45-2.4,14.8,14.8,0,0,0-1.44-1.71,16,16,0,0,0-4-6.16l.1-.11a1,1,0,0,0,.89.39,14.27,14.27,0,0,1,1.46-.07h.45A17.94,17.94,0,0,1,44.61,16.74Z" transform="translate(-0.01 0.01)"/><path class="cls-2" d="M44.21,23.68a14,14,0,0,1-3.47,9.21,11.27,11.27,0,0,0,.47-3.21,11,11,0,0,0-11-11h-.53a15.7,15.7,0,0,0-12.8.77,14,14,0,0,1,27.33,4.22Z" transform="translate(-0.01 0.01)"/><path class="cls-1" d="M42.72,17.38h0a14,14,0,0,0-25.83,2.08A15.6,15.6,0,0,0,14.44,21a15.88,15.88,0,0,1,3.49-7.57,15.19,15.19,0,0,1,1.65.08,1,1,0,0,0,1.1-.89s0-.07,0-.11a1,1,0,0,0-.87-1,11,11,0,0,1,1-.8,16,16,0,0,1,20.9,1.87,15.66,15.66,0,0,1,.9,4.38A.93.93,0,0,0,42.72,17.38Z" transform="translate(-0.01 0.01)"/><path class="cls-1" d="M41.21,29.68a11.27,11.27,0,0,1-.47,3.21A14.12,14.12,0,0,1,38.47,35l-2.09,1.31a1.88,1.88,0,0,0-.23.16h0a9,9,0,0,0-5.93-15.76H30a.94.94,0,0,0,.58-.57,1,1,0,0,0-.57-1.3l-.33-.12h.53A11,11,0,0,1,41.21,29.68Z" transform="translate(-0.01 0.01)"/><path class="cls-1" d="M40.66,6.69h-.45a14.27,14.27,0,0,0-1.46.07,1,1,0,0,1-.89-.39,1,1,0,0,1-.2-.52,1,1,0,0,1,.91-1.09l.24,0A17.16,17.16,0,0,1,40.66,6.69Z" transform="translate(-0.01 0.01)"/><path class="cls-2" d="M37.76,6.47a16,16,0,0,1,4,6.16,16,16,0,0,0-20.9-1.87,11,11,0,0,0-1,.8h0a18.06,18.06,0,0,0-8.21,1.1A16,16,0,0,1,37.76,6.47Z" transform="translate(-0.01 0.01)"/><path class="cls-1" d="M38.47,35a14.12,14.12,0,0,0,2.27-2.09A11,11,0,0,1,37.39,38l-.07,0a1,1,0,0,1-1.17-1.61,1.88,1.88,0,0,1,.23-.16Z" transform="translate(-0.01 0.01)"/><path class="cls-1" d="M38.81,4.73l-.24,0a1,1,0,0,0-.91,1.09,1,1,0,0,0,.2.52l-.1.11a16,16,0,0,0-26.19,6.18,17.69,17.69,0,0,0-2.41,1.14c.1-.45.23-.9.37-1.35A18,18,0,0,1,38.81,4.73Z" transform="translate(-0.01 0.01)"/><path class="cls-1" d="M38.11,53.39a1,1,0,0,1-.06,1.41l-.13.11a17.94,17.94,0,0,1-2.63-.5c.12-.07.23-.16.35-.24.38-.28.75-.57,1.1-.88a1,1,0,0,1,1.37.1Z" transform="translate(-0.01 0.01)"/><path class="cls-1" d="M37.61,52.84l0,.25a1,1,0,0,0-.83.2c-.35.31-.72.6-1.1.88-.12.08-.23.17-.35.24a18,18,0,0,1-8.36-5,16.44,16.44,0,0,0,2.3-.57A15.88,15.88,0,0,0,37.61,52.84Z" transform="translate(-0.01 0.01)"/><path class="cls-1" d="M37.92,54.91a13.11,13.11,0,0,1-1.11.89,18,18,0,0,1-28.23-11,1,1,0,0,0,1.33-.34,1,1,0,0,0,.15-.53,1,1,0,0,0-.47-.85h0c-.33-.2-.65-.42-1-.65a4,4,0,0,1-.34-.27,17.79,17.79,0,0,1,.3-4.36,1,1,0,0,1,.13-.34,15.72,15.72,0,0,0,1.58,4,16,16,0,0,0,25,12.93A17.94,17.94,0,0,0,37.92,54.91Z" transform="translate(-0.01 0.01)"/><path class="cls-1" d="M37.32,38.06l.07,0a11,11,0,0,1-7.18,2.66v-2a8.94,8.94,0,0,0,5.93-2.24h0a1,1,0,0,0,1.17,1.61Z" transform="translate(-0.01 0.01)"/><path class="cls-2" d="M30.21,20.68a9,9,0,0,1,0,18c-.22,0-.43,0-.64,0-3.39-.27-5-2.75-4.72-6.27a6,6,0,1,0,5.36-8.7H30l-.38,0-.49.07a2.05,2.05,0,0,0-.34.07A5.92,5.92,0,0,0,26,25.38l-.13.13a10.57,10.57,0,0,0-3,6.57,10,10,0,0,0,.12,3,9,9,0,0,1-1.64-3.76,9.45,9.45,0,0,1-.14-1.61,9,9,0,0,1,8.21-9,1,1,0,0,0,.58,0Z" transform="translate(-0.01 0.01)"/><path class="cls-1" d="M30.21,23.68a6,6,0,1,1-5.36,8.7s0-.07,0-.1a8.57,8.57,0,0,1,2.26-5.14,4,4,0,1,0,3.09-1.46Z" transform="translate(-0.01 0.01)"/><path class="cls-2" d="M30.21,25.68a4,4,0,1,1-3.09,1.46s0,0,0,0a4.56,4.56,0,0,1,2.53-1.38A3,3,0,0,1,30.21,25.68Z" transform="translate(-0.01 0.01)"/><path class="cls-1" d="M30.65,47.26a1,1,0,0,1-.57,1.31l-.37.14c-.4-.15-.79-.31-1.17-.49s-.61-.64-.9-1a13.51,13.51,0,0,0,1.7-.56,1.12,1.12,0,0,1,.51-.06h0l.41.16h0A1,1,0,0,1,30.65,47.26Z" transform="translate(-0.01 0.01)"/><path class="cls-1" d="M30,18.81a1,1,0,0,1,.57,1.3.94.94,0,0,1-.58.57l-.58,0-.14,0a14.29,14.29,0,0,0-3.83-.93,11.09,11.09,0,0,1,4.23-1.06Z" transform="translate(-0.01 0.01)"/><path class="cls-1" d="M30.21,38.68v2a8.19,8.19,0,0,1-.87,0A6.64,6.64,0,0,1,23,35.06a8.93,8.93,0,0,0,6.57,3.59C29.78,38.67,30,38.68,30.21,38.68Z" transform="translate(-0.01 0.01)"/><path class="cls-1" d="M30.21,23.68v2a3,3,0,0,0-.52,0,3.9,3.9,0,0,0-2.53,1.38s0,0,0,0a8.57,8.57,0,0,0-2.26,5.14s0,.07,0,.1a6,6,0,0,1-.64-2.7,5.89,5.89,0,0,1,1.7-4.17l.13-.13a6.55,6.55,0,0,1,2.77-1.53l.34-.07.49-.07.38,0Z" transform="translate(-0.01 0.01)"/><path d="M29.57,38.65c.21,0,.42,0,.64,0C30,38.68,29.78,38.67,29.57,38.65Z" transform="translate(-0.01 0.01)"/><path d="M29.34,40.64a8.19,8.19,0,0,0,.87,0A8.44,8.44,0,0,1,29.34,40.64Z" transform="translate(-0.01 0.01)"/><path d="M30.27,46.78l-.41-.16A1,1,0,0,1,30.27,46.78Z" transform="translate(-0.01 0.01)"/><path d="M30,23.69l-.38,0Z" transform="translate(-0.01 0.01)"/><path class="cls-1" d="M29.85,46.62a1.12,1.12,0,0,0-.51.06,13.51,13.51,0,0,1-1.7.56,16.11,16.11,0,0,1-1.92-2.91,1,1,0,0,0-1.36-.4,1,1,0,0,0-.51,1,15.94,15.94,0,0,1-4.64-11.27,15.5,15.5,0,0,1,.14-2.26,11,11,0,0,0,2.12,4.95,14,14,0,0,0,8.38,10.25Z" transform="translate(-0.01 0.01)"/><path d="M30,20.68a1,1,0,0,1-.58,0Z" transform="translate(-0.01 0.01)"/><path class="cls-1" d="M29.28,20.68l.14,0a9,9,0,0,0-8.21,9,9.45,9.45,0,0,0,.14,1.61,1,1,0,0,0-2,0s0,.06,0,.09a11.14,11.14,0,0,1-.14-1.74,11,11,0,0,1,6.24-9.93A14.29,14.29,0,0,1,29.28,20.68Z" transform="translate(-0.01 0.01)"/><path class="cls-1" d="M29.71,48.71l-.48.17a7.12,7.12,0,0,1-.69-.66C28.92,48.4,29.31,48.56,29.71,48.71Z" transform="translate(-0.01 0.01)"/><path d="M29.15,23.78l-.34.07A2.05,2.05,0,0,1,29.15,23.78Z" transform="translate(-0.01 0.01)"/><path class="cls-1" d="M28.54,48.22a7.12,7.12,0,0,0,.69.66,16.44,16.44,0,0,1-2.3.57,17.66,17.66,0,0,1-1.51-1.81A13.84,13.84,0,0,0,27,47.4,13.79,13.79,0,0,0,28.54,48.22Z" transform="translate(-0.01 0.01)"/><path class="cls-1" d="M27.64,47.24c.29.34.59.67.9,1A13.79,13.79,0,0,1,27,47.4C27.19,47.36,27.41,47.3,27.64,47.24Z" transform="translate(-0.01 0.01)"/><path d="M27.16,27.1a3.9,3.9,0,0,1,2.53-1.38A4.56,4.56,0,0,0,27.16,27.1Z" transform="translate(-0.01 0.01)"/><path class="cls-1" d="M27.64,47.24c-.23.06-.45.12-.67.16A16.14,16.14,0,0,1,23.85,45a1,1,0,0,1,.51-1,1,1,0,0,1,1.36.4A16.11,16.11,0,0,0,27.64,47.24Z" transform="translate(-0.01 0.01)"/><path class="cls-2" d="M26.93,49.45a18,18,0,0,0,8.36,5,16,16,0,0,1-25-12.93,16,16,0,0,0,14,8.2A16.19,16.19,0,0,0,26.93,49.45Z" transform="translate(-0.01 0.01)"/><path d="M26,25.38a5.92,5.92,0,0,1,2.77-1.53A6.55,6.55,0,0,0,26,25.38Z" transform="translate(-0.01 0.01)"/><path class="cls-1" d="M29.68,18.69a11.09,11.09,0,0,0-4.23,1.06,14.06,14.06,0,0,0-9.27,2.4.84.84,0,0,0,.19-.44,13.88,13.88,0,0,1,.51-2.25,15.7,15.7,0,0,1,12.8-.77Z" transform="translate(-0.01 0.01)"/><path class="cls-1" d="M25.42,47.64a17.66,17.66,0,0,0,1.51,1.81,16.19,16.19,0,0,1-2.69.23,16,16,0,0,1-14-8.2,16.1,16.1,0,0,1,.29-3.31,1,1,0,0,0,0-.54l.17-.05a13.25,13.25,0,0,0,.46,1.34A14,14,0,0,0,25.42,47.64Z" transform="translate(-0.01 0.01)"/><path class="cls-1" d="M22.87,32.08a10.57,10.57,0,0,1,3-6.57,5.89,5.89,0,0,0-1.7,4.17,6,6,0,0,0,.64,2.7c-.32,3.52,1.33,6,4.72,6.27A8.93,8.93,0,0,1,23,35.06h0A10,10,0,0,1,22.87,32.08Z" transform="translate(-0.01 0.01)"/><path class="cls-1" d="M27,47.4a13.84,13.84,0,0,1-1.55.24,18.16,18.16,0,0,1-1.48-2.4.81.81,0,0,1-.09-.29A16.14,16.14,0,0,0,27,47.4Z" transform="translate(-0.01 0.01)"/><path class="cls-2" d="M18.89,20.7a14.08,14.08,0,0,1,6.56-.95,11,11,0,0,0-6.24,9.93,11.14,11.14,0,0,0,.14,1.74,15.5,15.5,0,0,0-.14,2.26A15.94,15.94,0,0,0,23.85,45a.81.81,0,0,0,.09.29,18.16,18.16,0,0,0,1.48,2.4,14,14,0,0,1-14.29-8.72,13.25,13.25,0,0,1-.46-1.34,14,14,0,0,1,5-15,.92.92,0,0,0,.5-.38A14.05,14.05,0,0,1,18.89,20.7Z" transform="translate(-0.01 0.01)"/><path class="cls-1" d="M23,35.06a6.64,6.64,0,0,0,6.34,5.58,11,11,0,0,1-7.87-4.27,14.12,14.12,0,0,1-.11-4.75.92.92,0,0,0,0-.33A9,9,0,0,0,23,35.05Z" transform="translate(-0.01 0.01)"/><path class="cls-1" d="M21.35,31.29a.92.92,0,0,1,0,.33,14.12,14.12,0,0,0,.11,4.75,11,11,0,0,1-2.12-4.95s0-.06,0-.09a1,1,0,0,1,2,0Z" transform="translate(-0.01 0.01)"/><path class="cls-1" d="M20.69,12.54s0,.07,0,.11a1,1,0,0,1-1.1.89,15.19,15.19,0,0,0-1.65-.08,14.75,14.75,0,0,1,1.89-1.9A1,1,0,0,1,20.69,12.54Z" transform="translate(-0.01 0.01)"/><path class="cls-1" d="M19.79,11.55h0a14.75,14.75,0,0,0-1.89,1.9,15.91,15.91,0,0,0-7.16,1.72,1,1,0,0,0,.28-.51,15,15,0,0,1,.38-1.61c0-.14.09-.27.14-.41a18.06,18.06,0,0,1,8.21-1.1Z" transform="translate(-0.01 0.01)"/><path class="cls-2" d="M17.93,13.46A15.88,15.88,0,0,0,14.44,21,16,16,0,0,0,8.67,37.44a1,1,0,0,0-.13.34,17.79,17.79,0,0,0-.3,4.36,16,16,0,0,1,2-26.68s0,0,0,0a1.05,1.05,0,0,0,.53-.28A15.91,15.91,0,0,1,17.93,13.46Z" transform="translate(-0.01 0.01)"/><path class="cls-1" d="M16.88,19.46a13.88,13.88,0,0,0-.51,2.25.84.84,0,0,1-.19.44,6,6,0,0,0-.5.38,1,1,0,0,1-.45,0,1,1,0,0,1-.86-1.14c0-.13,0-.27.07-.4A15.6,15.6,0,0,1,16.88,19.46Z" transform="translate(-0.01 0.01)"/><path d="M15.68,22.53a6,6,0,0,1,.5-.38A.92.92,0,0,1,15.68,22.53Z" transform="translate(-0.01 0.01)"/><path class="cls-1" d="M15.23,22.57a1,1,0,0,0,.45,0,14,14,0,0,0-5,15l-.17.05A1,1,0,0,0,9.73,37a1,1,0,0,0-1.06.47A16,16,0,0,1,14.44,21c0,.13,0,.27-.07.4A1,1,0,0,0,15.23,22.57Z" transform="translate(-0.01 0.01)"/><path class="cls-1" d="M11.57,12.65c-.05.14-.1.27-.14.41a15,15,0,0,0-.38,1.61,1,1,0,0,1-.28.51c-.18.08-.35.18-.53.28,0,0,0,0,0,0a1,1,0,0,1-.39,0,1,1,0,0,1-.79-1.21c0-.15.07-.3.11-.45A17.69,17.69,0,0,1,11.57,12.65Z" transform="translate(-0.01 0.01)"/><path d="M10.24,15.46c.18-.1.35-.2.53-.28A1.05,1.05,0,0,1,10.24,15.46Z" transform="translate(-0.01 0.01)"/><path class="cls-1" d="M10.5,37.63a1,1,0,0,1,0,.54,16.1,16.1,0,0,0-.29,3.31,15.72,15.72,0,0,1-1.58-4A1,1,0,0,1,9.73,37,1,1,0,0,1,10.5,37.63Z" transform="translate(-0.01 0.01)"/><path class="cls-1" d="M9.84,15.45a1,1,0,0,0,.39,0,16,16,0,0,0-2,26.68,16.73,16.73,0,0,0,.34,2.64l-.05,0c-.37-.23-.74-.47-1.09-.73A18,18,0,0,1,9.16,13.79c0,.15-.08.3-.11.45A1,1,0,0,0,9.84,15.45Z" transform="translate(-0.01 0.01)"/><path class="cls-1" d="M10.06,43.91a1,1,0,0,1-.15.53,1,1,0,0,1-1.33.34,16.73,16.73,0,0,1-.34-2.64,4,4,0,0,0,.34.27c.35.23.67.45,1,.65h0A1,1,0,0,1,10.06,43.91Z" transform="translate(-0.01 0.01)"/></svg>