<svg id="Layer_1" data-name="Layer 1" xmlns="http://www.w3.org/2000/svg" viewBox="0 0 58.21 59.22"><defs><style>.cls-1{fill-rule:evenodd;}</style></defs><path class="cls-1" d="M14.23,29.21a18,18,0,0,0,4,25.14c.35.26.72.5,1.09.73a1,1,0,0,0,1.38-.32,1,1,0,0,0-.33-1.38c-.33-.2-.65-.42-1-.65a16,16,0,0,1,11-28.87,1,1,0,0,0,1.1-.89,1,1,0,0,0-.9-1.1A18,18,0,0,0,14.23,29.21Z" transform="translate(-10.79 -10.32)"/><path class="cls-1" d="M22.46,62.12a18,18,0,0,0,25.14,4c.43-.31.84-.63,1.24-1a1,1,0,0,0-1.31-1.51c-.35.31-.72.6-1.1.88a16,16,0,0,1-25.1-16,1,1,0,0,0-2-.39A18,18,0,0,0,22.46,62.12Z" transform="translate(-10.79 -10.32)"/><path class="cls-1" d="M56.31,64.47A18,18,0,0,0,67.87,41.79c-.17-.52-.36-1-.57-1.52a1,1,0,0,0-1.84.78c.19.44.35.89.5,1.35A16,16,0,0,1,36.51,54.65a1,1,0,0,0-1.78.91A18,18,0,0,0,56.31,64.47Z" transform="translate(-10.79 -10.32)"/><path class="cls-1" d="M69,33A18,18,0,0,0,51,15c-.55,0-1.1,0-1.64.07a1,1,0,0,0,.18,2A14.13,14.13,0,0,1,51,17a16,16,0,0,1,9.23,29.07,1,1,0,0,0-.24,1.4,1,1,0,0,0,1.39.24A18,18,0,0,0,69,33Z" transform="translate(-10.79 -10.32)"/><path class="cls-1" d="M22.22,23.38a16,16,0,0,1,31.19,3.95,1,1,0,1,0,2-.12,18,18,0,0,0-35.09-4.45q-.28.9-.48,1.8a1,1,0,0,0,2,.43A15.36,15.36,0,0,1,22.22,23.38Z" transform="translate(-10.79 -10.32)"/><path class="cls-1" d="M35,28a16,16,0,1,0,5.87,30.89A1,1,0,0,0,40.13,57,14,14,0,1,1,40.07,31a1,1,0,0,0,.73-1.87A16,16,0,0,0,35,28Z" transform="translate(-10.79 -10.32)"/><path class="cls-1" d="M30,44A16,16,0,1,0,56.93,32.32a1,1,0,0,0-1.41,0,1,1,0,0,0,0,1.42A14,14,0,1,1,32,44a14.17,14.17,0,0,1,.15-2.06,1,1,0,0,0-2-.29A16.67,16.67,0,0,0,30,44Z" transform="translate(-10.79 -10.32)"/><path class="cls-1" d="M41,20a14,14,0,0,1,8.26,25.3l-2.09,1.31a1,1,0,1,0,1.06,1.69L50.38,47A16,16,0,1,0,25.16,31.75a1,1,0,0,0,2,.28A14,14,0,0,1,41,20Z" transform="translate(-10.79 -10.32)"/><path class="cls-1" d="M52,40A11,11,0,1,0,41,51,11,11,0,0,0,52,40ZM32,40a9,9,0,1,1,9,9A9,9,0,0,1,32,40Z" transform="translate(-10.79 -10.32)"/><path class="cls-1" d="M47,40a6,6,0,1,0-6,6A6,6,0,0,0,47,40ZM37,40a4,4,0,1,1,4,4A4,4,0,0,1,37,40Z" transform="translate(-10.79 -10.32)"/><path class="cls-1" d="M33.66,42.4C33.17,47.28,35.84,51,41,51V49c-3.86,0-5.73-2.61-5.35-6.4C36,39,38.36,36,41,36V34C37.16,34,34.12,37.86,33.66,42.4Z" transform="translate(-10.79 -10.32)"/></svg>