<svg id="Layer_1" data-name="Layer 1" xmlns="http://www.w3.org/2000/svg" viewBox="0 0 58.2 59.24"><path d="M3.44,18.89A18,18,0,0,0,7.44,44h0c.35.26.72.5,1.09.73a1,1,0,0,0,1.38-.32h0a1,1,0,0,0-.32-1.38h0c-.33-.2-.65-.42-1-.65a16,16,0,0,1,11-28.87,1,1,0,0,0,1.1-.89h0a1,1,0,0,0-.89-1.1h0A18,18,0,0,0,3.44,18.89Z" transform="translate(-0.01 0.01)" fill="none" fill-rule="evenodd"/><path d="M11.67,51.8a18,18,0,0,0,25.14,4h0a12.92,12.92,0,0,0,1.24-1,1,1,0,0,0-1.31-1.51c-.35.31-.72.6-1.1.88a16,16,0,0,1-25.1-16,1,1,0,1,0-2-.39A18,18,0,0,0,11.67,51.8Z" transform="translate(-0.01 0.01)" fill="none" fill-rule="evenodd"/><path d="M45.52,54.15A18,18,0,0,0,57.08,31.47h0c-.17-.52-.36-1-.57-1.52a1,1,0,0,0-1.84.78c.19.44.35.89.5,1.35A16,16,0,0,1,25.72,44.33a1,1,0,0,0-1.78.91A18,18,0,0,0,45.52,54.15Z" transform="translate(-0.01 0.01)" fill="none" fill-rule="evenodd"/><path d="M58.21,22.68a18,18,0,0,0-18-18,12.78,12.78,0,0,0-1.64.07,1,1,0,1,0,.18,2,14.27,14.27,0,0,1,1.46-.07,16,16,0,0,1,9.23,29.07,1,1,0,0,0-.25,1.39h0a1,1,0,0,0,1.39.24A18,18,0,0,0,58.21,22.68Z" transform="translate(-0.01 0.01)" fill="none" fill-rule="evenodd"/><path d="M11.43,13.06a16,16,0,0,1,31.19,4,1,1,0,1,0,2-.12A18,18,0,0,0,9.53,12.44q-.28.9-.48,1.8a1,1,0,0,0,2,.43h0A15,15,0,0,1,11.43,13.06Z" transform="translate(-0.01 0.01)" fill="none" fill-rule="evenodd"/><path d="M24.21,17.68a16,16,0,1,0,5.87,30.89,1,1,0,0,0-.74-1.89,14,14,0,1,1-.06-26A1,1,0,0,0,30,18.81,16,16,0,0,0,24.21,17.68Z" transform="translate(-0.01 0.01)" fill="none" fill-rule="evenodd"/><path d="M19.21,33.68A16,16,0,1,0,46.14,22a1,1,0,0,0-1.42,1.41h0A14,14,0,1,1,21.21,33.68a14.17,14.17,0,0,1,.15-2.06,1,1,0,1,0-2-.29A15.38,15.38,0,0,0,19.21,33.68Z" transform="translate(-0.01 0.01)" fill="none" fill-rule="evenodd"/><path d="M30.21,9.68A14,14,0,0,1,38.47,35l-2.09,1.31a1,1,0,0,0,.94,1.77l.12-.08,2.15-1.3A16,16,0,1,0,14.37,21.43a1,1,0,1,0,2,.28h0A14,14,0,0,1,30.21,9.68Z" transform="translate(-0.01 0.01)" fill="none" fill-rule="evenodd"/><path d="M41.21,29.68a11,11,0,1,0-11,11A11,11,0,0,0,41.21,29.68Zm-20,0a9,9,0,1,1,9,9A9,9,0,0,1,21.21,29.68Z" transform="translate(-0.01 0.01)" fill="none" fill-rule="evenodd"/><path d="M36.21,29.68a6,6,0,1,0-6,6A6,6,0,0,0,36.21,29.68Zm-10,0a4,4,0,1,1,4,4A4,4,0,0,1,26.21,29.68Z" transform="translate(-0.01 0.01)" fill="none" fill-rule="evenodd"/><path d="M22.87,32.08c-.49,4.88,2.18,8.6,7.34,8.6v-2c-3.86,0-5.73-2.61-5.35-6.4.35-3.6,2.71-6.6,5.35-6.6v-2C26.37,23.68,23.33,27.54,22.87,32.08Z" transform="translate(-0.01 0.01)" fill="none" fill-rule="evenodd"/></svg>